<svg width="1200" height="800" viewBox="0 0 1200 800" fill="none" xmlns="http://www.w3.org/2000/svg">
  <rect width="1200" height="800" rx="48" fill="#111827"/>
  <rect x="72" y="72" width="1056" height="656" rx="36" fill="url(#g1)"/>
  <rect x="270" y="260" width="660" height="250" rx="28" fill="#D1D5DB" opacity="0.95"/>
  <g fill="#9CA3AF">
    <rect x="306" y="296" width="46" height="34" rx="6"/>
    <rect x="364" y="296" width="46" height="34" rx="6"/>
    <rect x="422" y="296" width="46" height="34" rx="6"/>
    <rect x="480" y="296" width="46" height="34" rx="6"/>
    <rect x="538" y="296" width="46" height="34" rx="6"/>
    <rect x="596" y="296" width="46" height="34" rx="6"/>
    <rect x="654" y="296" width="46" height="34" rx="6"/>
    <rect x="712" y="296" width="46" height="34" rx="6"/>
    <rect x="770" y="296" width="46" height="34" rx="6"/>
    <rect x="306" y="344" width="46" height="34" rx="6"/>
    <rect x="364" y="344" width="46" height="34" rx="6"/>
    <rect x="422" y="344" width="46" height="34" rx="6"/>
    <rect x="480" y="344" width="46" height="34" rx="6"/>
    <rect x="538" y="344" width="46" height="34" rx="6"/>
    <rect x="596" y="344" width="46" height="34" rx="6"/>
    <rect x="654" y="344" width="46" height="34" rx="6"/>
    <rect x="712" y="344" width="46" height="34" rx="6"/>
    <rect x="770" y="344" width="46" height="34" rx="6"/>
    <rect x="316" y="392" width="60" height="34" rx="6"/>
    <rect x="388" y="392" width="60" height="34" rx="6"/>
    <rect x="460" y="392" width="60" height="34" rx="6"/>
    <rect x="532" y="392" width="60" height="34" rx="6"/>
    <rect x="604" y="392" width="60" height="34" rx="6"/>
    <rect x="676" y="392" width="60" height="34" rx="6"/>
  </g>
  <rect x="304" y="448" width="592" height="28" rx="14" fill="#6B7280"/>
  <rect x="448" y="500" width="304" height="14" rx="7" fill="#9CA3AF" opacity="0.85"/>
  <defs>
    <linearGradient id="g1" x1="72" y1="72" x2="1128" y2="728" gradientUnits="userSpaceOnUse">
      <stop stop-color="#0F172A"/>
      <stop offset="1" stop-color="#1E293B"/>
    </linearGradient>
  </defs>
</svg>